<svg xmlns="http://www.w3.org/2000/svg" viewBox="0 0 230.89 145.78"><defs><style>.cls-1{fill:#e30613;}.cls-2{fill:none;stroke:#ededed;stroke-miterlimit:10;stroke-width:6px;}</style></defs><title>logo</title><g id="Ebene_2" data-name="Ebene 2"><g id="v1"><path class="cls-1" d="M205.34,68.11a46.89,46.89,0,0,0-83.15-43.36,38.87,38.87,0,0,0-7.83-.81A38.09,38.09,0,0,0,78.69,48.68,28.54,28.54,0,0,0,42.05,65.33H40.22a40.23,40.23,0,0,0,0,80.45H190.67a40.22,40.22,0,0,0,14.67-77.67Z"/><path class="cls-2" d="M89.76,118.18a64,64,0,0,1,15.11-28.45c17-18.38,39.54-20.16,44.89-20.44"/><line class="cls-2" x1="131.53" y1="54.93" x2="151.78" y2="70.78"/><line class="cls-2" x1="150.21" y1="67.9" x2="137.78" y2="88.78"/></g></g></svg>